<?xml version="1.0" encoding="UTF-8"?>
<svg id="katman_2" data-name="katman 2" xmlns="http://www.w3.org/2000/svg" viewBox="0 0 567.09 64" width="1134.18" height="128">
  <defs>
    <style>
      .cls-1 {
      fill: #1e1e1c;
      }

      .cls-1, .cls-2, .cls-3, .cls-4, .cls-5, .cls-6, .cls-7, .cls-8, .cls-9 {
      stroke-width: 0px;
      }

      .cls-2 {
      fill: #fdfdfd;
      }

      .cls-3 {
      fill: #201f1e;
      }

      .cls-4 {
      fill: #1e1e1d;
      }

      .cls-5 {
      fill: #1f1f1e;
      }

      .cls-6 {
      fill: #20201e;
      }

      .cls-7 {
      fill: #fff;
      }

      .cls-8 {
      fill: #1f1e1d;
      }

      .cls-9 {
      fill: #fefefe;
      }
    </style>
  </defs>
  <g id="katman_2-2" data-name="katman 2">
    <g id="logo_Görüntü" data-name="logo Görüntü">
      <g>
        <path class="cls-1"
          d="M47.79,30.1c-2.14,4.73-4.14,9.26-6.24,13.75-.38.81-.13,1.38.17,2.04,1.54,3.37,3.1,6.73,4.64,10.11,1.48,3.27.64,6.19-2.09,7.46-2.79,1.3-5.51.06-7.01-3.23-4.36-9.58-8.71-19.15-13.06-28.73-.17-.35-.34-.71-.65-1.36-1.74,3.83-3.39,7.43-5.02,11.03-2.92,6.44-5.82,12.91-8.78,19.34-1.49,3.24-4.55,4.33-7.34,2.69-2.36-1.38-3.06-4.04-1.74-6.95,4.38-9.71,8.8-19.41,13.21-29.11,1.56-3.43,3.13-6.86,4.67-10.31.96-2.16,2.44-3.73,4.89-3.78,2.55-.04,4.11,1.49,5.12,3.74,2.06,4.58,4.16,9.16,6.26,13.73.27.59.41,1.25,1.04,1.75,2.34-5.14,4.68-10.16,6.92-15.23.99-2.24,2.39-3.92,4.94-3.99,2.64-.06,4.16,1.58,5.2,3.9,5.93,13.14,11.94,26.26,17.89,39.4,1.11,2.44.81,4.48-.76,6.07-1.44,1.45-3.61,1.89-5.51,1.1-1.51-.63-2.33-1.88-2.97-3.31-4.32-9.52-8.66-19.03-12.99-28.55-.19-.42-.4-.83-.76-1.56h-.01Z" />
        <path class="cls-4"
          d="M198.13,12.97c6.08.08,10.88,1.57,15.21,4.55,2.95,2.02,3.76,4.98,2.1,7.51-1.76,2.67-4.75,3.07-7.83,1.04-9.05-5.96-20.68-1.71-23.39,8.54-1.61,6.09.69,12.43,5.85,16.19,5.04,3.65,11.74,3.81,17.01.39,1-.64,1.92-1.42,3.17-1.58,2.5-.33,4.68.85,5.62,3.12.92,2.24.29,4.67-1.84,6.16-8.46,5.89-17.46,6.79-26.69,2.21-9.71-4.81-15.1-15.31-13.72-25.9,1.38-10.57,9.31-19.23,19.82-21.6,1.82-.41,3.66-.63,4.69-.61h0Z" />
        <path class="cls-4"
          d="M124.64,37.81c.03-8.98,4.52-17.02,13.75-21.88,9.11-4.81,18.17-3.88,26.66,1.95,2.66,1.83,3.21,4.9,1.53,7.3-1.73,2.47-4.71,2.87-7.54,1-9.06-5.98-20.45-2.09-23.46,7.99-1.82,6.1.37,12.62,5.51,16.44,5.12,3.81,11.78,4.04,17.14.6.94-.61,1.8-1.35,2.96-1.58,2.48-.5,4.95.73,5.9,2.98,1,2.34.22,4.78-2.05,6.45-9.32,6.84-22.54,6.37-31.32-1.2-5.67-4.88-8.75-11.04-9.08-20.06h0Z" />
        <path class="cls-4"
          d="M403.61,30.09c-2.37,5.21-4.64,10.21-6.91,15.19-2.36,5.18-4.69,10.36-7.09,15.52-1.01,2.17-3.01,3.32-5.08,3.09-2.14-.24-3.81-1.71-4.38-3.79-.33-1.22-.12-2.37.38-3.48,6.1-13.43,12.19-26.86,18.31-40.29.92-2.03,2.51-3.3,4.79-3.3s3.84,1.31,4.76,3.33c6.09,13.36,12.18,26.73,18.22,40.1,1.3,2.88.31,5.72-2.26,6.93-2.66,1.26-5.52.14-6.88-2.82-4.3-9.39-8.54-18.79-12.8-28.19-.31-.7-.65-1.37-1.09-2.31h.01Z" />
        <path class="cls-4"
          d="M543.55,30.14c-.49,1.02-.93,1.9-1.34,2.8-4.22,9.27-8.43,18.55-12.67,27.81-1.01,2.2-2.97,3.37-5.04,3.16-2.19-.22-3.96-1.77-4.5-3.92-.3-1.22-.03-2.36.48-3.48,6.07-13.37,12.13-26.75,18.21-40.11.92-2.02,2.48-3.33,4.76-3.35,2.28-.02,3.86,1.24,4.79,3.28,6.12,13.42,12.23,26.85,18.3,40.29,1.27,2.83.18,5.74-2.41,6.88-2.6,1.14-5.43.02-6.73-2.82-4.43-9.69-8.81-19.39-13.22-29.09-.19-.42-.39-.84-.66-1.43h.02Z" />
        <path class="cls-4"
          d="M246.19,30.1c-1.03,2.23-1.97,4.25-2.9,6.29-3.7,8.13-7.37,16.26-11.11,24.37-1.01,2.19-2.98,3.35-5.05,3.14-2.13-.22-3.86-1.68-4.43-3.74-.4-1.43,0-2.72.6-4.03,5.98-13.12,11.95-26.24,17.89-39.37.99-2.17,2.47-3.68,4.93-3.71,2.57-.03,4.09,1.59,5.08,3.8,5.33,11.75,10.66,23.48,15.99,35.23.58,1.26,1.15,2.52,1.72,3.8,1.55,3.44.74,6.37-2.1,7.62-2.81,1.24-5.51-.1-7.07-3.54-4.15-9.16-8.3-18.31-12.46-27.47-.32-.71-.65-1.42-1.1-2.38h.01Z" />
        <path class="cls-4"
          d="M101.58,30.37c-4.61,10.12-9.15,20.12-13.71,30.12-1.23,2.69-3.42,3.89-5.86,3.29-3.39-.83-4.79-4.06-3.21-7.55,4.53-10.01,9.09-20,13.64-29.99,1.45-3.19,2.9-6.39,4.34-9.58.97-2.17,2.55-3.62,5-3.6,2.37.03,3.86,1.48,4.82,3.57,6.02,13.25,12.07,26.5,18.07,39.75,1.34,2.96.35,5.9-2.28,7.09-2.65,1.2-5.47.04-6.83-2.93-4.33-9.44-8.6-18.91-12.91-28.37-.27-.59-.38-1.27-1.09-1.79h.01Z" />
        <path class="cls-8"
          d="M433.55,48.57c0-3.19-.04-6.38,0-9.56.06-3.72,2.17-5.75,5.87-5.74,4.25,0,8.49.03,12.74.02,3.29,0,5.55-2.07,5.49-4.97-.06-2.97-2.24-4.93-5.55-4.95-4.25-.02-8.5-.13-12.74.07-3.48.16-5.78-2.44-5.85-5.18-.08-3,2.34-5.18,5.79-5.19,4.85-.02,9.69.16,14.54,0,9.07-.27,15.74,8.54,14.45,17.35-1.16,7.97-6.7,12.85-14.97,13.14-2.66.09-5.31.11-7.96,0-1.36-.06-1.63.44-1.61,1.68.07,4.38.04,8.76.02,13.14-.02,3.21-2.11,5.47-5.03,5.51-2.88.03-5.05-2.2-5.19-5.39v-9.95h-.01Z" />
        <path class="cls-8"
          d="M286.32,30.27c0,9.74.01,18.96,0,28.17,0,3.06-1.88,5.26-4.61,5.51-3.08.3-5.57-1.98-5.65-5.29-.08-3.44-.02-6.9-.02-10.35,0-9.69.03-19.36-.02-29.05-.01-2.66.58-4.88,3.23-6.02,2.21-.96,4.21-.28,6.49,2.03,4.11,4.15,8.25,8.26,12.38,12.39,3,3,3.35,5.96.99,8.28-2.3,2.27-5.3,1.86-8.29-1.13-1.4-1.4-2.78-2.8-4.5-4.54h0Z" />
        <path class="cls-1"
          d="M338.87,38.4c0-6.64-.01-13.28,0-19.92,0-3.42,2-5.64,5.04-5.66,3.06-.02,5.1,2.16,5.14,5.58.04,4.38.06,8.77-.01,13.14-.02,1.3.33,1.82,1.67,1.66.92-.1,1.86-.06,2.78.03,2.47.21,4.41,2.26,4.56,4.72.16,2.6-1.55,4.9-4.05,5.35-1.04.18-2.13.23-3.17.16-1.37-.11-1.83.33-1.79,1.75.09,4.58.08,9.17,0,13.74-.04,2.47-1.66,4.36-3.9,4.9-2.07.51-4.32-.44-5.51-2.3-.64-1-.75-2.09-.75-3.24.01-6.64,0-13.28,0-19.92h0Z" />
        <path class="cls-3"
          d="M474.41,38.2v-19.71c0-3.49,2.1-5.85,5.14-5.81,2.95.02,5.1,2.35,5.1,5.68.02,13.28.02,26.55,0,39.83,0,3.42-2.28,5.81-5.27,5.71-2.97-.1-4.96-2.39-4.97-5.79-.01-6.63,0-13.28,0-19.91Z" />
        <path class="cls-3"
          d="M305.03,38.25v-19.7c0-3.4,2-5.65,5-5.69,3.11-.04,5.23,2.2,5.24,5.7.02,13.26.02,26.53,0,39.79,0,3.01-1.77,5.18-4.35,5.58-2.44.38-4.77-1.06-5.64-3.43-.29-.78-.25-1.56-.25-2.36v-19.9h0Z" />
        <path class="cls-1"
          d="M373.66,38.48c0,6.83.03,13.66-.01,20.51-.01,2.37-1.52,4.21-3.73,4.83-2.11.6-4.47-.34-5.7-2.27-.6-.93-.73-1.97-.73-3.04,0-13.41-.02-26.81.01-40.21,0-3.29,2.05-5.44,5.03-5.46,3.06-.03,5.12,2.17,5.13,5.55.02,6.7,0,13.41,0,20.11h.01Z" />
        <path class="cls-5"
          d="M508.09,23.27c-3.92,0-7.84.01-11.75,0-3.5-.02-5.77-2.11-5.72-5.21.04-3.01,2.3-5.03,5.69-5.04,7.91-.01,15.8-.02,23.7,0,3.43,0,5.83,2.2,5.77,5.21-.06,2.95-2.39,5.03-5.75,5.05-3.99.02-7.97,0-11.95,0h0Z" />
        <path class="cls-6"
          d="M503.09,48.74c0-3.31-.02-6.63,0-9.94.03-3.1,2.05-5.27,4.93-5.37,2.91-.1,5.21,2.09,5.26,5.27.08,6.63.07,13.25,0,19.89-.03,3.2-2.25,5.4-5.15,5.38-2.92-.02-5.02-2.27-5.04-5.47-.02-3.24,0-6.5,0-9.74h0Z" />
        <path class="cls-3"
          d="M101.61,63.93c-1.46,0-2.92.06-4.37-.01-3.04-.13-5.12-2.29-5.1-5.21.02-2.92,2.14-5.03,5.21-5.07,2.91-.04,5.83-.04,8.75,0,3.02.06,5.23,2.24,5.24,5.08.02,2.86-2.14,5.07-5.16,5.19-1.52.07-3.04.01-4.57,0v.02Z" />
        <path class="cls-3"
          d="M246.16,53.62c1.53,0,3.04-.04,4.57,0,2.85.1,4.92,2.14,5.02,4.87.11,2.87-1.82,5.23-4.69,5.37-3.23.17-6.5.16-9.73,0-2.85-.13-4.89-2.59-4.77-5.35.12-2.69,2.25-4.78,5.04-4.89,1.52-.06,3.04,0,4.57,0h0Z" />
        <path class="cls-5"
          d="M403.63,63.91c-1.59,0-3.19.09-4.77-.02-2.86-.2-4.96-2.51-4.88-5.27.08-2.77,2.25-4.94,5.15-4.99,2.98-.07,5.97-.06,8.95,0,2.93.06,5.06,2.16,5.14,4.96.08,2.91-1.99,5.16-5,5.31-1.52.08-3.04.01-4.57.01h0Z" />
        <path class="cls-3"
          d="M543.44,53.62c1.53,0,3.04-.04,4.57,0,2.86.09,4.94,2.09,5.08,4.81.16,2.83-1.78,5.27-4.64,5.43-3.3.18-6.63.18-9.93,0-2.75-.16-4.74-2.6-4.65-5.27.1-2.69,2.21-4.83,4.99-4.95,1.52-.07,3.04-.01,4.57-.01Z" />
        <path class="cls-8"
          d="M457.17,47.17c1.22-.06,2.42.55,3.45,1.57,2.03,2.02,4.07,4,6.05,6.07,2.23,2.34,2.24,5.35.11,7.47-2.04,2.04-5.16,1.95-7.46-.29-2.09-2.04-4.17-4.1-6.17-6.23-1.55-1.65-1.92-3.63-.9-5.7.92-1.88,2.47-2.9,4.89-2.89h.02Z" />
        <path class="cls-3"
          d="M479.48,0c3.13-.03,5.7,2.52,5.7,5.65s-2.59,5.7-5.69,5.68c-3.03-.02-5.52-2.5-5.57-5.57-.06-3.18,2.41-5.74,5.56-5.76h0Z" />
        <path class="cls-7"
          d="M41.6,61.18c-.94-.03-1.48-1.1-1.98-2.21-3.58-7.89-7.16-15.79-10.75-23.68-1.21-2.66-2.39-5.31-3.61-7.95-.38-.82-.61-1.92-1.78-1.86-1.04.04-1.27,1.05-1.62,1.82-4.72,10.36-9.42,20.73-14.13,31.09-1.16,2.57-2.16,3.29-3.68,2.66-1.55-.64-1.73-2.07-.56-4.62,5.8-12.78,11.61-25.54,17.43-38.32,1.13-2.48,2.92-3.09,4.38-1.48.43.48.7,1.12.96,1.72,2.59,5.66,5.17,11.32,7.76,16.97.35.78.58,1.77,1.61,1.83,1.18.07,1.41-1.03,1.78-1.85,2.61-5.72,5.21-11.44,7.82-17.17.54-1.18,1.14-2.37,2.65-2.34,1.45.02,2.09,1.13,2.64,2.35,5.9,13.02,11.82,26.03,17.75,39.04.68,1.47.89,2.85-.78,3.79-1.36.76-2.59.08-3.49-1.89-4.79-10.54-9.58-21.09-14.37-31.64-.38-.83-.58-1.92-1.73-1.96-1.18-.04-1.4,1.07-1.77,1.88-2.39,5.24-4.72,10.51-7.15,15.72-.56,1.21-.51,2.18.06,3.37,1.74,3.64,3.39,7.33,5.02,11.03.9,2.02-.06,3.78-2.44,3.72h-.01Z" />
        <path class="cls-7"
          d="M176.14,38.44c.25-9.19,4.43-16.03,12.41-20.2,7.87-4.11,15.73-3.39,23.2,1.44.84.54,1.66,1.11,1.76,2.25.08,1.02-.22,1.86-1.13,2.37-1.03.59-2.02.4-2.98-.27-4.15-2.93-8.71-3.96-13.76-3.16-8.31,1.34-14.63,9.02-14.56,17.84.08,8.57,6.67,16.15,14.92,17.33,4.76.68,9.08-.3,13.05-2.96,1.76-1.17,3.13-1.12,4.02.12.93,1.31.47,2.8-1.32,3.95-7.53,4.86-15.45,5.6-23.37,1.38-7.95-4.23-12.05-11.11-12.26-20.11h.01Z" />
        <path class="cls-7"
          d="M132.29,38.87c.18,6.51,3.23,11.84,9.28,15.18,6.07,3.37,12.21,2.99,18.15-.59,2.44-1.47,3.71-1.56,4.65-.14,1.02,1.53.43,2.73-2.13,4.33-7.99,5.02-17.93,4.71-25.43-.79-7.67-5.61-11.03-14.86-8.74-24.11,2.17-8.77,9.92-15.7,19.11-16.87,5.81-.74,11.2.61,16.03,3.99,1.61,1.12,1.99,2.41,1.16,3.69-.86,1.33-2.28,1.45-3.99.33-10.37-6.78-23.52-2.4-27.26,9.06-.59,1.79-.78,3.62-.85,5.92h.01Z" />
        <path class="cls-7"
          d="M421.98,61.19c-1.18,0-1.73-1.02-2.25-2.16-4.72-10.43-9.46-20.84-14.19-31.26-.11-.24-.23-.48-.32-.72-.29-.76-.62-1.56-1.56-1.59-.95-.03-1.3.78-1.64,1.52-.69,1.51-1.36,3.01-2.05,4.52-4.06,8.98-8.13,17.96-12.18,26.94-.11.24-.21.49-.33.72-.9,1.87-2,2.47-3.37,1.84-1.4-.65-1.72-1.9-.89-3.73,2.23-4.95,4.48-9.88,6.73-14.81,3.63-8.02,7.27-16.02,10.89-24.04.59-1.31,1.21-2.65,2.88-2.61,1.59.02,2.1,1.36,2.66,2.59,5.77,12.71,11.55,25.42,17.32,38.12.28.6.6,1.2.76,1.83.39,1.45-.71,2.85-2.47,2.87h0Z" />
        <path class="cls-7"
          d="M561.75,61.19c-1.11-.02-1.62-1.07-2.14-2.2-3.94-8.75-7.92-17.47-11.87-26.21-.85-1.87-1.69-3.73-2.55-5.6-.35-.78-.62-1.73-1.68-1.72-1.05.01-1.33.96-1.68,1.74-4.67,10.31-9.33,20.6-13.99,30.91-.3.66-.55,1.36-.95,1.96-.71,1.06-1.71,1.47-2.92.87-1.18-.59-1.54-1.59-1.21-2.83.12-.44.38-.84.56-1.27,5.79-12.78,11.58-25.55,17.37-38.32.28-.6.53-1.23.94-1.74,1.27-1.59,3.19-1.37,4.16.56,1.07,2.13,1.99,4.33,2.98,6.49,5.06,11.14,10.13,22.28,15.18,33.43.97,2.16.12,3.93-2.19,3.92h-.01Z" />
        <path class="cls-7"
          d="M264.99,61.21c-1.64,0-2.18-1.02-2.7-2.17-4.72-10.43-9.46-20.84-14.18-31.27-.19-.42-.33-.87-.55-1.27-.79-1.4-1.88-1.42-2.69-.06-.3.51-.51,1.07-.76,1.62-4.64,10.24-9.29,20.48-13.93,30.72-.39.85-.71,1.75-1.61,2.19-.94.47-1.83.27-2.56-.44-.95-.92-.83-1.97-.31-3.1,2.42-5.29,4.82-10.6,7.21-15.9,3.5-7.72,6.99-15.42,10.49-23.14.59-1.31,1.21-2.65,2.89-2.61,1.61.02,2.1,1.36,2.66,2.59,5.87,12.95,11.74,25.91,17.64,38.85.65,1.42.85,2.67-.64,3.63-.32.21-.73.28-.94.34h0Z" />
        <path class="cls-7"
          d="M122.59,58.9c.01,1.06-.54,1.77-1.47,2.15-.95.38-1.87.17-2.5-.65-.4-.51-.65-1.14-.93-1.74-4.74-10.42-9.48-20.84-14.21-31.26-.38-.83-.59-1.9-1.74-1.94-1.17-.03-1.41,1.06-1.77,1.88-4.71,10.36-9.4,20.73-14.09,31.09-.3.66-.59,1.35-1.02,1.92-.68.9-1.64,1.12-2.66.62-1.07-.52-1.58-1.41-1.31-2.6.13-.58.41-1.12.65-1.66,5.8-12.77,11.61-25.53,17.41-38.3.6-1.31,1.17-2.64,2.86-2.64s2.14,1.35,2.69,2.57c5.79,12.78,11.58,25.54,17.36,38.32.32.72.78,1.4.74,2.24h-.01Z" />
        <path class="cls-7"
          d="M436.2,48.57c0-3.12-.02-6.24,0-9.37.02-2.35.89-3.19,3.28-3.2,4.38,0,8.77.06,13.15,0,3.49-.04,6.26-2.07,7.29-5.16,1.02-3.09-.03-6.58-2.59-8.58-1.54-1.21-3.33-1.57-5.23-1.57-4.12,0-8.24.02-12.36.04-2.3,0-3.57-.89-3.55-2.52,0-1.59,1.18-2.45,3.4-2.45,4.58,0,9.17.18,13.74-.03,7.66-.34,12.36,6.61,12.37,11.88,0,7.77-4.56,12.95-12.04,13.21-3.39.12-6.78.12-10.16.04-1.8-.04-2.5.61-2.47,2.44.08,4.85.03,9.7.02,14.55,0,2.29-.83,3.38-2.46,3.33-1.62-.04-2.39-1.15-2.39-3.44v-9.17h0Z" />
        <path class="cls-7"
          d="M278.77,38.26c0-6.43.01-12.87,0-19.3,0-1.4.08-2.7,1.62-3.28,1.44-.53,2.38.35,3.29,1.26,4.36,4.36,8.72,8.71,13.08,13.09,1.44,1.44,1.59,2.92.49,3.97-1.12,1.07-2.49.89-3.99-.6-2.21-2.19-4.4-4.42-6.62-6.61-.59-.59-1.14-1.43-2.17-.93-.96.47-.83,1.41-.83,2.26v29.05c0,.6.02,1.2-.03,1.79-.13,1.38-.9,2.19-2.3,2.25-1.53.06-2.38-.83-2.48-2.27-.11-1.78-.04-3.58-.04-5.37v-15.32Z" />
        <path class="cls-9"
          d="M341.52,38.32v-19.5c0-1.09.03-2.15,1.04-2.85.76-.53,1.59-.64,2.44-.21,1.07.54,1.43,1.49,1.43,2.64v13.73c0,2.48,1.21,3.72,3.64,3.73,1,0,1.99-.04,2.98.04,1.45.13,2.33.94,2.3,2.47-.02,1.53-.96,2.3-2.39,2.4-1.52.1-3.06.09-4.57.02-1.47-.07-1.99.55-1.98,1.99.04,5.1.01,10.22.02,15.32,0,1.11-.14,2.13-1.18,2.77-1.76,1.1-3.66-.12-3.71-2.46-.07-3.91-.02-7.83-.02-11.74v-8.36h.01Z" />
        <path class="cls-7"
          d="M481.98,38.3v19.49c0,2.21-.89,3.38-2.47,3.37-1.59-.02-2.37-1.12-2.38-3.42V17.95c.03-1.59.87-2.55,2.42-2.55s2.38,1.05,2.41,2.59c.04,2.06.01,4.11.01,6.17v14.14Z" />
        <path class="cls-7"
          d="M307.7,38.42v-19.53c0-2.25.85-3.41,2.44-3.4,1.54.01,2.42,1.25,2.42,3.45,0,13.02,0,26.04.01,39.05,0,1.26-.18,2.42-1.43,3.04-1.76.86-3.43-.41-3.44-2.7-.03-6.64-.01-13.29-.01-19.93h.01Z" />
        <path class="cls-9"
          d="M371.07,38.48v18.72c0,.6.03,1.21-.04,1.79-.19,1.34-.93,2.19-2.36,2.23-1.54.03-2.28-.87-2.49-2.3-.07-.45-.03-.93-.03-1.4V19.27c0-.72.03-1.47.23-2.16.31-1.09,1.18-1.63,2.26-1.61,1.05.03,1.95.55,2.21,1.67.17.7.2,1.44.2,2.16.01,6.38,0,12.75,0,19.12l.02.02Z" />
        <path class="cls-7"
          d="M507.91,20.54h-11.54c-2,0-3.27-.97-3.1-2.49.2-1.79,1.41-2.31,3.1-2.31,7.89.03,15.79,0,23.67.02,1.97,0,3,.85,3,2.39s-1.04,2.38-3,2.39c-4.04.02-8.09,0-12.13,0Z" />
        <path class="cls-9"
          d="M510.63,48.82c0,3.11.02,6.22,0,9.33-.02,2.09-.9,3.16-2.54,3.06-1.88-.11-2.37-1.38-2.37-3.02v-19.08c0-1.67.62-2.88,2.44-2.99,1.47-.1,2.45,1.09,2.47,2.96.03,3.24,0,6.49,0,9.73h0Z" />
        <path class="cls-7"
          d="M101.75,61.21h-4.36c-1.59,0-2.55-.87-2.57-2.41-.02-1.54.91-2.44,2.5-2.45,2.91-.02,5.82-.02,8.74,0,1.55.01,2.52.79,2.55,2.4.01,1.61-.92,2.41-2.49,2.46-1.45.03-2.91,0-4.36,0Z" />
        <path class="cls-7"
          d="M246.22,61.21c-1.45,0-2.91.02-4.36,0-1.55-.02-2.54-.78-2.57-2.38-.03-1.61.91-2.45,2.47-2.47,2.98-.04,5.96-.03,8.94,0,1.52.02,2.38.94,2.39,2.36.01,1.52-.9,2.45-2.49,2.48-1.45.03-2.91,0-4.36,0h-.01Z" />
        <path class="cls-7"
          d="M403.66,56.33c1.46,0,2.91-.02,4.37,0,1.61.02,2.52.94,2.5,2.47-.03,1.53-1,2.39-2.59,2.39-2.91,0-5.82.02-8.74,0-1.57-.02-2.5-.87-2.48-2.47.02-1.61,1.01-2.36,2.57-2.39,1.45-.02,2.91,0,4.37,0h-.01Z" />
        <path class="cls-7"
          d="M543.51,61.21c-1.46,0-2.91.02-4.37,0-1.57-.03-2.52-.84-2.52-2.44s.96-2.41,2.52-2.42c2.91-.03,5.82-.02,8.74,0,1.59,0,2.55.9,2.55,2.42s-.94,2.41-2.55,2.44c-1.46.01-2.91,0-4.37,0h.01Z" />
        <path class="cls-9"
          d="M465.67,58.35c.02,1.21-.47,1.94-1.35,2.41-.91.5-1.86.42-2.58-.27-2.29-2.19-4.56-4.41-6.73-6.72-.93-.99-.79-2.25.16-3.22.95-.97,2.2-1.13,3.2-.19,2.31,2.17,4.52,4.45,6.74,6.71.37.37.62.86.56,1.27h0Z" />
        <path class="cls-2"
          d="M479.45,8.59c-1.58-.04-2.88-1.35-2.89-2.92-.01-1.61,1.46-3.04,3.06-3,1.64.06,2.92,1.48,2.83,3.16-.09,1.59-1.4,2.8-3,2.76h0Z" />
      </g>
    </g>
  </g>
</svg>